HIERARCHY
ROOT Hips
{
	OFFSET	0.00	0.00	0.00
	CHANNELS 6 Xposition Yposition Zposition Zrotation Xrotation Yrotation
	JOINT LeftUpLeg
	{
		OFFSET	 0.126116	-0.014019	-0.065224
		CHANNELS 3 Zrotation Xrotation Yrotation
		JOINT LeftLeg
		{
			OFFSET	 0.000000	 0.000000	 0.569914
			CHANNELS 3 Zrotation Xrotation Yrotation
			JOINT LeftFoot
			{
				OFFSET	 0.000000	 0.000000	 0.544423
				CHANNELS 3 Zrotation Xrotation Yrotation
				JOINT LeftToeBase
				{
					OFFSET	 0.000000	 0.000000	 0.207117
					CHANNELS 3 Zrotation Xrotation Yrotation
					End Site
					{
						OFFSET	 0.000000	 0.000000	 0.207117
					}
				}
			}
		}
	}
	JOINT RightUpLeg
	{
		OFFSET	-0.124023	-0.008373	-0.065224
		CHANNELS 3 Zrotation Xrotation Yrotation
		JOINT RightLeg
		{
			OFFSET	 0.000000	 0.000000	 0.570047
			CHANNELS 3 Zrotation Xrotation Yrotation
			JOINT RightFoot
			{
				OFFSET	 0.000000	 0.000000	 0.544354
				CHANNELS 3 Zrotation Xrotation Yrotation
				JOINT RightToeBase
				{
					OFFSET	 0.000000	 0.000000	 0.207540
					CHANNELS 3 Zrotation Xrotation Yrotation
					End Site
					{
						OFFSET	 0.000000	 0.000000	 0.207540
					}
				}
			}
		}
	}
	JOINT Spine
	{
		OFFSET	 0.000184	-0.007763	 0.117403
		CHANNELS 3 Zrotation Xrotation Yrotation
		JOINT Spine1
		{
			OFFSET	 0.000000	 0.000000	 0.137269
			CHANNELS 3 Zrotation Xrotation Yrotation
			JOINT Spine2
			{
				OFFSET	 0.000000	 0.000000	 0.156879
				CHANNELS 3 Zrotation Xrotation Yrotation
				JOINT LeftShoulder
				{
					OFFSET	 0.080501	-0.002496	 0.160144
					CHANNELS 3 Zrotation Xrotation Yrotation
					JOINT LeftArm
					{
						OFFSET	 0.000000	 0.000000	 0.164363
						CHANNELS 3 Zrotation Xrotation Yrotation
						JOINT LeftForeArm
						{
							OFFSET	 0.000000	 0.000000	 0.364576
							CHANNELS 3 Zrotation Xrotation Yrotation
							JOINT LeftHand
							{
								OFFSET	 0.000000	 0.000000	 0.360812
								CHANNELS 3 Zrotation Xrotation Yrotation
								JOINT LeftHandIndex1
								{
									OFFSET	 0.000000	 0.000000	 0.086006
									CHANNELS 3 Zrotation Xrotation Yrotation
									JOINT LeftHandIndex2
									{
										OFFSET	 0.000000	 0.000000	 0.047237
										CHANNELS 3 Zrotation Xrotation Yrotation
										JOINT LeftHandIndex3
										{
											OFFSET	-0.004284	-0.000551	 0.038165
											CHANNELS 3 Zrotation Xrotation Yrotation
											End Site
											{
												OFFSET	-0.004284	-0.000551	 0.038165
											}
										}
									}
								}
							}
						}
					}
				}
				JOINT Neck
				{
					OFFSET	 0.000000	 0.000000	 0.176489
					CHANNELS 3 Zrotation Xrotation Yrotation
					JOINT Head
					{
						OFFSET	 0.000000	-0.001747	 0.077940
						CHANNELS 3 Zrotation Xrotation Yrotation
						End Site
						{
							OFFSET	 0.000000	-0.001747	 0.077940
						}
					}
				}
				JOINT RightShoulder
				{
					OFFSET	-0.080363	 0.000306	 0.159706
					CHANNELS 3 Zrotation Xrotation Yrotation
					JOINT RightArm
					{
						OFFSET	 0.000000	 0.000000	 0.164196
						CHANNELS 3 Zrotation Xrotation Yrotation
						JOINT RightForeArm
						{
							OFFSET	 0.000000	 0.000000	 0.365611
							CHANNELS 3 Zrotation Xrotation Yrotation
							JOINT RightHand
							{
								OFFSET	 0.000000	 0.000000	 0.360648
								CHANNELS 3 Zrotation Xrotation Yrotation
								JOINT RightHandIndex1
								{
									OFFSET	 0.000000	 0.000000	 0.069977
									CHANNELS 3 Zrotation Xrotation Yrotation
									JOINT RightHandIndex2
									{
										OFFSET	 0.000000	 0.000000	 0.052305
										CHANNELS 3 Zrotation Xrotation Yrotation
										JOINT RightHandIndex3
										{
											OFFSET	 0.009002	-0.000782	 0.042196
											CHANNELS 3 Zrotation Xrotation Yrotation
											End Site
											{
												OFFSET	 0.009002	-0.000782	 0.042196
											}
										}
									}
								}
							}
						}
					}
				}
			}
		}
	}
}
MOTION
Frames:    5
Frame Time: 0.03333334
-0.639834	-0.137807	 1.266933	-159.863300	 2.473747	 8.196091	-5.660519	-5.211032	 168.036700	-8.803686	-30.625210	-3.502707	-72.968330	 85.314920	 68.917420	-2.385833	 28.452760	 0.000004	 31.521290	-42.709260	-175.296000	-24.867790	-57.757230	-11.880120	 39.252490	 42.975940	-44.071420	 2.384659	 28.388700	-0.000001	 35.874900	-11.242980	-17.780390	 46.663850	 25.226940	-6.480299	-16.758280	-4.981232	 7.405078	-91.776200	 78.527400	-180.000000	 20.128560	 48.443460	-25.392090	-8.883991	-7.469373	-50.280040	 5.759130	-32.592790	-5.179244	-4.131196	 21.524690	 0.986298	-5.167839	 0.733520	 3.519257	-1.378229	 35.397820	-2.634230	-13.985950	 16.336450	-7.861138	-28.648930	 2.500282	 5.523173	 89.782110	 78.300250	 179.994300	 3.434556	 65.698560	 0.103181	-4.926566	-3.046771	 9.425145	 110.025600	-72.282400	-12.085070	 5.715225	 19.176060	-3.692089	 5.027514	 0.245388	-9.378011	-2.350882	 35.473990	 5.254307
-0.637068	-0.135444	 1.267864	-161.172200	 2.969910	 8.594041	-2.865107	-5.703006	 167.234100	-7.875040	-30.223280	-2.989379	-120.697200	 86.338740	 115.523200	-2.385833	 28.452760	 0.000004	 29.179440	-43.565810	-176.110800	-19.490700	-57.617830	-7.270092	 48.159620	 50.021710	-47.951030	 2.384659	 28.388700	-0.000001	 36.690880	-12.883750	-18.792710	 46.631130	 27.326080	-6.236159	-16.704400	-5.369418	 7.229868	-91.776250	 78.527400	-179.999900	 19.825120	 48.194170	-25.092820	-8.227439	-8.268597	-50.249460	 6.295409	-32.159190	-5.513025	-4.131196	 21.524690	 0.986298	-5.167839	 0.733520	 3.519257	-1.378229	 35.397820	-2.634230	-14.010710	 16.487980	-7.702018	-28.594600	 2.265048	 5.072296	 89.782080	 78.315480	 179.992800	 1.775930	 65.694850	 3.074465	-6.867825	-2.535690	 7.045470	 108.886100	-70.579060	-10.435020	 5.715225	 19.176060	-3.692089	 5.027514	 0.245388	-9.378011	-2.350882	 35.473990	 5.254307
-0.630646	-0.129982	 1.268044	-162.291900	 3.901443	 7.474321	-0.747859	-5.792132	 168.102300	-5.629169	-28.663420	-1.765606	 172.089600	 82.634120	-179.808000	-2.385833	 28.452760	 0.000004	 32.536090	-43.247430	-173.413800	-17.800670	-57.336430	-5.817263	 59.157410	 53.858300	-55.931320	 2.384659	 28.388700	-0.000001	 37.910110	-13.186160	-17.138810	 46.478930	 28.519990	-5.957361	-16.438230	-6.343112	 6.580043	-91.776220	 78.527400	-180.000000	 19.990880	 48.113630	-24.969800	-7.621446	-8.924376	-49.960380	 6.786295	-31.667500	-5.855439	-4.131196	 21.524690	 0.986298	-5.167839	 0.733520	 3.519257	-1.378229	 35.397820	-2.634230	-13.733000	 17.122220	-7.941148	-28.439460	 2.154067	 6.006411	 89.782150	 78.324440	 179.992600	-1.593642	 65.383180	 7.405388	-8.621705	-1.872240	 4.753277	 106.097400	-70.081380	-9.498215	 5.715225	 19.176060	-3.692089	 5.027514	 0.245388	-9.378011	-2.350882	 35.473990	 5.254307
-0.621713	-0.123168	 1.267804	-161.986600	 3.369103	 5.069107	-0.749520	-3.175681	 170.414400	-3.842633	-25.534380	-0.815168	 151.911900	 78.563270	-161.275300	-2.385833	 28.452760	 0.000004	 37.014610	-40.082280	-170.356900	-17.586260	-57.409710	-5.576174	 70.254420	 55.825290	-64.393320	 2.384659	 28.388700	-0.000001	 38.300280	-10.920680	-13.973400	 46.250730	 28.382580	-8.133877	-15.718070	-8.239322	 7.626769	-91.776160	 78.527400	 180.000000	 20.425780	 48.098370	-24.780330	-7.274516	-9.231416	-49.602970	 7.119186	-31.249440	-6.114170	-4.131196	 21.524690	 0.986298	-5.167839	 0.733520	 3.519257	-1.378229	 35.397820	-2.634230	-13.176530	 17.123940	-8.580689	-28.401670	 2.568261	 8.074127	 89.782100	 78.327000	 179.994100	-5.724634	 64.973210	 11.888850	-8.852294	-1.231103	 3.093620	 110.737600	-71.437550	-1.461202	 5.715225	 19.176060	-3.692089	 5.027514	 0.245388	-9.378011	-2.350882	 35.473990	 5.254307
-0.609487	-0.113122	 1.267447	-162.126500	 2.662361	 5.882899	 2.509853	-1.388035	 168.400500	-6.962726	-24.067500	-2.047774	 143.996900	 83.309860	-150.888600	-2.385833	 28.452760	 0.000004	 37.172470	-38.057260	-172.035500	-17.104020	-55.699060	-5.131164	 71.769010	 57.536980	-64.312840	 2.384659	 28.388700	-0.000001	 38.328260	-9.506765	-14.666190	 46.109360	 26.475150	-8.276880	-15.422330	-7.638653	 8.639530	-91.776250	 78.527400	-180.000000	 21.270460	 47.453370	-25.272840	-7.066015	-9.348006	-49.196310	 7.225661	-30.883550	-6.318398	-4.131196	 21.524690	 0.986298	-5.167839	 0.733520	 3.519257	-1.378229	 35.397820	-2.634230	-12.714720	 17.211840	-9.354009	-28.467150	 2.382245	 9.299882	 89.782150	 78.323830	 179.994800	-9.823239	 64.915740	 14.625980	-6.067452	-2.059243	 5.993044	 138.886400	-80.202950	 29.321690	 5.715225	 19.176060	-3.692089	 5.027514	 0.245388	-9.378011	-2.350882	 35.473990	 5.254307
